<svg width="166.75244140625px" height="121.426220703125px" xmlns="http://www.w3.org/2000/svg" viewBox="166.623779296875 14.286889648437501 166.75244140625 121.426220703125" style="background: rgba(0, 0, 0, 0);" preserveAspectRatio="xMidYMid"><defs><linearGradient id="editing-sticker-gradient" x1="0.5" y1="0.2" x2="0.5" y2="0.8"><stop offset="0" stop-color="#000000"></stop><stop offset="1" stop-color="#000000"></stop></linearGradient><filter id="editing-sticker" x="-100%" y="-100%" width="300%" height="300%"><feMorphology operator="erode" radius="1" in="SourceAlpha" result="alpha-erode"></feMorphology><feConvolveMatrix order="3,3" divisor="1" kernelMatrix="0 1 0 1 1 1 0 1 0" in="alpha-erode" result="alpha-round"></feConvolveMatrix><feMorphology operator="dilate" radius="3.5" in="alpha-round" result="dilate-shadow"></feMorphology><feGaussianBlur in="dilate-shadow" stdDeviation="1.5" result="shadow"></feGaussianBlur><feFlood flood-color="#fff" result="flood-sticker"></feFlood><feComposite operator="in" in="flood-sticker" in2="alpha-round" result="comp-sticker"></feComposite><feMorphology operator="dilate" radius="3" in="comp-sticker" result="morph-sticker"></feMorphology><feConvolveMatrix order="3,3" divisor="1" kernelMatrix="0 1 0 1 1 1 0 1 0" in="morph-sticker" result="sticker"></feConvolveMatrix><feMerge><feMergeNode in="shadow"></feMergeNode><feMergeNode in="sticker"></feMergeNode><feMergeNode in="SourceGraphic"></feMergeNode></feMerge></filter></defs><g filter="url(#editing-sticker)"><g transform="translate(198.8899974822998, 96.90906143188477)"><path d="M29.18 1.28L29.18 1.28L29.18 1.28Q20.99 1.28 20.22-10.37L20.22-10.37L9.22-10.37L9.22-10.37Q7.94-7.42 7.04-4.86L7.04-4.86L5.38 0L-3.58 0L16.58-42.24L30.34-42.24L33.02-11.14L33.02-11.14Q33.66-4.42 36.22-2.43L36.22-2.43L36.22-2.43Q34.37 1.28 29.18 1.28ZM14.72-23.17L11.20-15.04L20.03-15.04L19.26-31.49L19.26-33.22L14.72-23.17ZM41.54-39.68L41.54-39.68L41.54-39.68Q42.43-41.47 44.38-42.46L44.38-42.46L44.38-42.46Q46.34-43.46 49.02-43.46L49.02-43.46L49.02-43.46Q53.25-43.46 55.78-40.42L55.78-40.42L55.78-40.42Q58.30-37.38 58.30-30.72L58.30-30.72L58.30-7.87L72.96-42.18L80.51-42.18L82.24-9.79L82.05-7.94L97.28-42.18L106.05-42.18L85.57 0L71.94 0L70.66-19.46L62.21 0L46.78 0L44.86-30.72L44.86-30.72Q44.67-34.18 43.74-36.45L43.74-36.45L43.74-36.45Q42.82-38.72 41.54-39.68Z" fill="url(#editing-sticker-gradient)" stroke="#000000" stroke-width="3"></path></g></g><style>text {
  font-size: 64px;
  font-family: Arial Black;
  dominant-baseline: central;
  text-anchor: middle;
}</style></svg>